<svg width="486" height="486" viewBox="0 0 486 486" fill="none" xmlns="http://www.w3.org/2000/svg">
<path d="M14.4832 69.5H25.6632L32.3582 99.595H32.7482L40.8732 69.5H52.0532L60.1782 99.595H60.5682L67.2632 69.5H78.5082L66.7432 115H55.4332L46.4632 83.215L37.4932 115H26.1832L14.4832 69.5ZM113.437 69.5H124.357V115H113.437V96.67H97.252V115H86.397V69.5H97.252V87.635H113.437V69.5ZM134.461 69.5H166.116V78.99H145.316V87.83H164.166V96.28H145.316V105.51H166.766V115H134.461V69.5ZM174.972 69.5H206.627V78.99H185.827V87.83H204.677V96.28H185.827V105.51H207.277V115H174.972V69.5ZM215.483 69.5H226.338V105.51H246.683V115H215.483V69.5ZM273.992 115.65C269.658 115.65 265.867 114.718 262.617 112.855C259.41 110.948 256.94 108.24 255.207 104.73C253.473 101.22 252.607 97.06 252.607 92.25C252.607 87.4833 253.473 83.345 255.207 79.835C256.94 76.325 259.41 73.6383 262.617 71.775C265.867 69.8683 269.658 68.915 273.992 68.915C279.538 68.915 284.088 70.345 287.642 73.205C291.195 76.0217 293.167 80.2683 293.557 85.945H282.897C281.64 80.875 278.672 78.34 273.992 78.34C270.438 78.34 267.86 79.6183 266.257 82.175C264.653 84.7317 263.852 88.09 263.852 92.25C263.852 96.4533 264.632 99.8333 266.192 102.39C267.795 104.947 270.395 106.225 273.992 106.225C278.672 106.225 281.64 103.668 282.897 98.555H293.557C293.167 104.275 291.195 108.565 287.642 111.425C284.088 114.242 279.538 115.65 273.992 115.65ZM328.35 115L320.16 100.505H312.945V115H302.09V69.5H320.94C326.92 69.5 331.362 70.9083 334.265 73.725C337.212 76.4983 338.685 80.2467 338.685 84.97C338.685 88.3067 337.949 91.1883 336.475 93.615C335.002 96.0417 332.792 97.84 329.845 99.01L339.14 115H328.35ZM312.945 91.015H320.55C322.89 91.015 324.624 90.4733 325.75 89.39C326.877 88.3067 327.44 86.8333 327.44 84.97C327.44 83.1067 326.877 81.655 325.75 80.615C324.624 79.5317 322.89 78.99 320.55 78.99H312.945V91.015ZM379.868 115L377.268 107.265H358.873L356.273 115H344.833L361.018 69.5H375.123L391.373 115H379.868ZM361.538 99.205H374.603L368.428 80.55H367.778L361.538 99.205ZM398.918 69.5H429.273V78.99H409.773V88.22H425.958V96.995H409.773V115H398.918V69.5ZM448.698 78.99H435.828V69.5H472.553V78.99H459.618V115H448.698V78.99Z" fill="#FF8000"/>
<path d="M152.171 159V134.5H154.761V159H152.171ZM160.757 159V134.5H163.697L177.067 155.115H177.137V134.5H179.692V159H176.717L163.417 138.455H163.347V159H160.757ZM185.715 134.5H193.485C201.15 134.5 205.07 138.875 205.07 146.75C205.07 154.625 201.15 159 193.485 159H185.715V134.5ZM188.305 156.725H193.24C199.54 156.725 202.445 153.47 202.445 146.75C202.445 139.995 199.575 136.775 193.24 136.775H188.305V156.725ZM220.9 159.35C214.53 159.35 209.84 154.765 209.84 146.75C209.84 138.7 214.53 134.185 220.9 134.185C227.235 134.185 231.925 138.7 231.925 146.75C231.925 154.765 227.235 159.35 220.9 159.35ZM220.9 157.11C225.835 157.11 229.3 153.505 229.3 146.75C229.3 140.03 225.835 136.425 220.9 136.425C215.965 136.425 212.465 140.03 212.465 146.75C212.465 153.505 215.965 157.11 220.9 157.11ZM237.203 159V134.5H240.143L253.513 155.115H253.583V134.5H256.138V159H253.163L239.863 138.455H239.793V159H237.203ZM262.161 159V134.5H277.596V136.775H264.751V145.35H276.546V147.45H264.751V156.725H277.946V159H262.161ZM291.666 159.35C285.681 159.35 282.356 156.27 282.356 152H284.946C285.121 155.08 287.361 157.145 291.701 157.145C295.761 157.145 297.931 155.29 297.931 152.35C297.931 149.655 296.111 148.36 292.891 147.695L289.706 147.065C285.296 146.19 283.091 144.055 283.091 140.66C283.091 136.74 286.066 134.185 291.351 134.185C296.566 134.185 299.856 136.775 299.856 140.555H297.301C297.161 138.14 295.096 136.39 291.351 136.39C287.571 136.39 285.751 138.175 285.751 140.66C285.751 142.935 287.291 144.405 290.406 145.035L293.521 145.665C298.141 146.61 300.591 148.465 300.591 152.28C300.591 156.725 297.266 159.35 291.666 159.35ZM305.89 159V134.5H308.48V159H305.89ZM335.06 159H332.365L329.985 152.665H318.19L315.81 159H313.08L322.53 134.5H325.645L335.06 159ZM324 137.3L318.96 150.67H329.215L324.175 137.3H324Z" fill="#7B7B7B"/>
</svg>
