<svg width="35" height="35" viewBox="0 0 35 35" fill="none" xmlns="http://www.w3.org/2000/svg">
<path fill-rule="evenodd" clip-rule="evenodd" d="M5.46875 0H29.5312C32.5515 0 35 2.44845 35 5.46875V29.5312C35 32.5516 32.5515 35 29.5312 35H5.46875C2.44845 35 0 32.5516 0 29.5312V5.46875C0 2.44845 2.44845 0 5.46875 0ZM10.6094 12.7969C10.7187 12.9062 10.8281 13.125 10.8281 13.3437V21C10.9375 21.3281 10.8281 21.5469 10.6094 21.7656L8.75 23.9531V24.2812H13.8906V23.9531L12.0312 21.7656C11.9219 21.5469 11.8125 21.3281 11.8125 21V14.3281L16.4062 24.2812H16.8437L20.7812 14.3281V22.3125C20.7812 22.5312 20.7812 22.6406 20.6719 22.75L19.25 24.1719V24.5H26.1406V24.1719L24.8281 22.8594C24.7188 22.75 24.7188 22.5312 24.7188 22.4219V12.5781C24.6094 12.3594 24.7188 12.25 24.8281 12.1406L26.25 10.8281V10.5H21.4375L17.9375 19.1406L14 10.5H8.96876V10.8281L10.6094 12.7969Z" fill="#F9F9F9"/>
</svg>
