<svg width="35" height="35" viewBox="0 0 35 35" fill="none" xmlns="http://www.w3.org/2000/svg">
<path fill-rule="evenodd" clip-rule="evenodd" d="M0 5.46875C0 2.44844 2.44844 0 5.46875 0H29.5312C32.5516 0 35 2.44844 35 5.46875V29.5312C35 32.5516 32.5516 35 29.5312 35H5.46875C2.44844 35 0 32.5516 0 29.5312V5.46875ZM24.1719 12.5781C24.9375 12.4687 25.5937 12.3594 26.25 12.0312C25.8125 12.7969 25.1562 13.4531 24.3906 13.8906C24.6094 19.0312 20.8906 24.6094 14.2188 24.6094C12.25 24.6094 10.3906 23.9531 8.75 22.9688C10.6094 23.1875 12.5781 22.6406 13.8906 21.6562C12.25 21.6562 10.9375 20.5625 10.5 19.1406C11.0469 19.25 11.5938 19.1406 12.1406 19.0312C10.5 18.5938 9.29688 17.0625 9.29688 15.4219C9.84375 15.6406 10.3906 15.8594 10.9375 15.8594C9.40625 14.7656 8.85938 12.6875 9.84375 11.0469C11.7031 13.2344 14.3281 14.6562 17.2813 14.7656C16.7344 12.5781 18.4844 10.3906 20.7812 10.3906C21.7656 10.3906 22.75 10.8281 23.4062 11.4844C24.2812 11.2656 25.0469 11.0469 25.7031 10.6094C25.4844 11.4844 24.9375 12.1406 24.1719 12.5781Z" fill="#F9F9F9"/>
</svg>
